<svg width="131" height="39" viewBox="0 0 131 39" fill="none" xmlns="http://www.w3.org/2000/svg">
<path d="M49 15C49 19.9706 45.1944 24 40.5 24C35.8056 24 32 19.9706 32 15C32 10.0294 35.8056 6 40.5 6C45.1944 6 49 10.0294 49 15Z" fill="#F7BE6F"/>
<line x1="0.00381668" y1="31.5" x2="131.004" y2="32.5" stroke="#B7E2C4"/>
<path d="M30.696 24H23.904V22.944L26.088 22.152V16.176H17.832V22.152L20.016 22.944V24H13.224V22.944L15.408 22.152V8.904L13.224 8.112V7.056H20.016V8.112L17.832 8.904V14.328H26.088V8.904L23.904 8.112V7.056H30.696V8.112L28.512 8.904V22.152L30.696 22.944V24Z" fill="#F7BE6F"/>
<path d="M58.008 24H51.696V22.968L53.712 22.176V7.368H51.696V5.928C52.32 5.624 53.04 5.472 53.856 5.472C54.688 5.472 55.248 5.672 55.536 6.072C55.824 6.456 55.968 7.048 55.968 7.848V22.176L58.008 22.968V24ZM66.0315 24H59.7195V22.968L61.7355 22.176V13.608H59.7195V12.168C60.3435 11.864 61.0635 11.712 61.8795 11.712C62.7115 11.712 63.2715 11.912 63.5595 12.312C63.8475 12.696 63.9915 13.288 63.9915 14.088V22.176L66.0315 22.968V24ZM64.0875 8.952C63.7195 9.32 63.2715 9.504 62.7435 9.504C62.2155 9.504 61.7675 9.32 61.3995 8.952C61.0315 8.584 60.8475 8.136 60.8475 7.608C60.8475 7.08 61.0315 6.632 61.3995 6.264C61.7675 5.896 62.2155 5.712 62.7435 5.712C63.2715 5.712 63.7195 5.896 64.0875 6.264C64.4555 6.632 64.6395 7.08 64.6395 7.608C64.6395 8.136 64.4555 8.584 64.0875 8.952ZM80.7923 22.368V23.808C80.1683 24.112 79.4803 24.264 78.7283 24.264C77.9923 24.264 77.4563 24.128 77.1203 23.856C76.8003 23.584 76.6083 23.184 76.5443 22.656C75.8083 23.712 74.6563 24.24 73.0883 24.24C71.8243 24.24 70.6563 23.808 69.5843 22.944C69.0403 22.496 68.6003 21.864 68.2643 21.048C67.9443 20.216 67.7843 19.256 67.7843 18.168C67.7843 17.08 68.0003 16.112 68.4323 15.264C68.8643 14.4 69.4323 13.72 70.1363 13.224C71.5603 12.216 73.1363 11.712 74.8643 11.712C75.3763 11.712 75.9283 11.824 76.5203 12.048V7.368H74.5043V5.928C75.1283 5.624 75.8483 5.472 76.6643 5.472C77.4963 5.472 78.0563 5.672 78.3443 6.072C78.6323 6.456 78.7762 7.048 78.7762 7.848V22.368H80.7923ZM74.8643 13.608C73.4403 13.608 72.2883 14 71.4083 14.784C70.5443 15.552 70.1123 16.64 70.1123 18.048C70.1123 19.456 70.4563 20.552 71.1443 21.336C71.8483 22.104 72.6083 22.488 73.4243 22.488C74.8003 22.488 75.8323 21.984 76.5203 20.976V13.968C75.8003 13.728 75.2483 13.608 74.8643 13.608ZM94.5002 22.368V23.808C93.8762 24.112 93.1882 24.264 92.4362 24.264C91.6842 24.264 91.1402 24.12 90.8042 23.832C90.4842 23.544 90.3002 23.128 90.2522 22.584C89.3722 23.704 88.2122 24.264 86.7722 24.264C85.3482 24.264 84.2682 23.976 83.5322 23.4C82.7962 22.824 82.4282 22.016 82.4282 20.976C82.4282 18.976 83.8202 17.824 86.6042 17.52L90.2282 17.136V16.44C90.2282 15.512 90.0362 14.808 89.6522 14.328C89.2682 13.848 88.6602 13.608 87.8282 13.608C86.2922 13.608 85.0442 13.776 84.0842 14.112L83.6042 14.28L83.1722 12.744C83.6202 12.488 84.3002 12.256 85.2122 12.048C86.1242 11.824 86.9722 11.712 87.7562 11.712C89.4682 11.712 90.6842 12.056 91.4042 12.744C92.1242 13.416 92.4842 14.368 92.4842 15.6V22.368H94.5002ZM86.7242 19.08C86.1162 19.16 85.6282 19.344 85.2602 19.632C84.9082 19.92 84.7322 20.312 84.7322 20.808C84.7322 21.288 84.9242 21.672 85.3082 21.96C85.7082 22.232 86.2602 22.368 86.9642 22.368C88.2922 22.368 89.3802 22.008 90.2282 21.288V18.696L86.7242 19.08ZM106.297 24H96.0968V22.368L103.441 13.944H98.1367L97.6808 15.336H96.3128V12.048H105.961V13.944L98.9768 22.032H104.593L105.049 20.592H106.297V24ZM114.662 24.24C112.854 24.24 111.382 23.728 110.246 22.704C109.126 21.664 108.566 20.152 108.566 18.168C108.566 16.184 109.142 14.616 110.294 13.464C111.446 12.296 112.79 11.712 114.326 11.712C117.974 11.712 119.798 13.872 119.798 18.192H110.894V18.312C110.894 19.448 111.294 20.408 112.094 21.192C112.894 21.976 113.982 22.368 115.358 22.368C115.95 22.368 116.51 22.304 117.038 22.176C117.566 22.032 117.95 21.888 118.19 21.744L118.526 21.552L119.222 22.8C119.174 22.832 119.102 22.888 119.006 22.968C118.926 23.032 118.742 23.144 118.454 23.304C118.166 23.464 117.854 23.608 117.518 23.736C116.67 24.072 115.718 24.24 114.662 24.24ZM117.566 16.656C117.486 15.664 117.158 14.912 116.582 14.4C116.022 13.872 115.286 13.608 114.374 13.608C113.478 13.608 112.734 13.864 112.142 14.376C111.55 14.872 111.166 15.632 110.99 16.656H117.566Z" fill="#F7BE6F"/>
<ellipse cx="40.5" cy="15" rx="5.5" ry="6" fill="#B7E2C4"/>
</svg>
